<svg preserveAspectRatio="none" overflow="visible" style="display: block;" width="13.3393" height="13.3393" viewBox="0 0 13.3393 13.3393" fill="none" xmlns="http://www.w3.org/2000/svg">
<g id="icon">
<path id="Vector" d="M6.66965 12.2274C9.73926 12.2274 12.2277 9.73899 12.2277 6.66937C12.2277 3.59975 9.73926 1.11134 6.66965 1.11134C3.60003 1.11134 1.11161 3.59975 1.11161 6.66937C1.11161 9.73899 3.60003 12.2274 6.66965 12.2274Z" stroke="#7A756F" stroke-width="1.11161" stroke-linecap="round" stroke-linejoin="round"/>
<path id="Vector_2" d="M5.05225 5.00255C5.18292 4.63109 5.44084 4.31786 5.78033 4.11834C6.11982 3.91882 6.51896 3.84589 6.90707 3.91246C7.29517 3.97903 7.6472 4.18081 7.90079 4.48205C8.15438 4.7833 8.29317 5.16458 8.29259 5.55835C8.29259 6.66996 6.62518 7.22576 6.62518 7.22576" stroke="#7A756F" stroke-width="1.11161" stroke-linecap="round" stroke-linejoin="round"/>
<path id="Vector_3" opacity="0.7" d="M6.66964 9.44839H6.6752" stroke="#D1CCC5" stroke-width="1.11161" stroke-linecap="round" stroke-linejoin="round"/>
</g>
</svg>
